<svg id="Layer_1" data-name="Layer 1" xmlns="http://www.w3.org/2000/svg" viewBox="0 0 126.7 35.23"><g id="Aroma" style="isolation:isolate"><g style="isolation:isolate"><path d="M35.53,8.2l.65.6a6.3,6.3,0,0,0-1.29,2,10.26,10.26,0,0,0-.3,2.89q0,8,3.56,19.12,2,6.19,3.12,6.19c.36,0,.94-.42,1.73-1.24l.59.56-.28.3c-1.35,1.44-2.57,2.83-3.68,4.18l-.47.58a79.88,79.88,0,0,1-5-13.43,46.45,46.45,0,0,1-2-11.83,39.18,39.18,0,0,1,.28-4.41l.07-.63q-1.87,1.94-5.74,6.79c-1.61,2-3.07,3.76-4.36,5.23l-.54.61q1.29-.09,2.88-.09l6.82.11,1,.05a51.86,51.86,0,0,0-1.64,5.81H30a8.37,8.37,0,0,0,.33-2,1.17,1.17,0,0,0-.61-1.17,7.08,7.08,0,0,0-2.51-.28h-3.4L20,28.28l-.47,0-.61.61q-5.05,4.94-6.82,6.43a55.65,55.65,0,0,1-5.2,3.77l-.66.44c1.11-.09,2.31-.14,3.59-.14a60,60,0,0,1,6.77.29l4.41.49a26.94,26.94,0,0,0,3.16.21A8.54,8.54,0,0,0,30,38.52,8.53,8.53,0,0,0,32.67,33a1.52,1.52,0,0,1,.87,1.34q0,2-2.7,4.61a13,13,0,0,1-9.12,4q-1.63,0-4.5-.3Q10.26,42,6.3,42l-4.92.12H.93l1.48-2.37a34.56,34.56,0,0,0,11.46-7Q19.15,28,28.75,16A90.46,90.46,0,0,1,35.53,8.2Z" transform="translate(-0.93 -8.2)" fill="#1d1007"/><path d="M62.24,23.62,61.4,26a8,8,0,0,0-1.57-.18Q57.12,25.8,54,30a24,24,0,0,0-2.5,4.33c-.69,1.57-1.56,4-2.59,7.15l-.26.8a25.09,25.09,0,0,0-2.9.8l.26-.71,2.06-5.48Q51,28.94,51,27.53c0-.48-.21-.73-.64-.73a5.24,5.24,0,0,0-1.57.64l-.3-.73a35.51,35.51,0,0,0,5.88-3.54,3.21,3.21,0,0,1,.1.78,19.86,19.86,0,0,1-1.62,6l.56-.66q5.46-6,7.74-6A2.29,2.29,0,0,1,62.24,23.62Z" transform="translate(-0.93 -8.2)" fill="#1d1007"/><path d="M77.17,25.7c-.83-.08-1.51-.11-2.06-.11a10.79,10.79,0,0,0-9.45,4.73,19.46,19.46,0,0,0-2.18,4.3,12.36,12.36,0,0,0-.89,4.07,2.72,2.72,0,0,0,.67,1.88,2.17,2.17,0,0,0,1.7.74c1.63,0,3.42-1.3,5.39-3.91s3-5,3-7.17A1.92,1.92,0,0,0,72.92,29a1.15,1.15,0,0,0-.93-.51q-1.87,0-3.58,3.75a3.31,3.31,0,0,1-.12-.82,4.32,4.32,0,0,1,1.8-3,5.33,5.33,0,0,1,3.43-1.6,2.3,2.3,0,0,1,1.82.88,3.19,3.19,0,0,1,.75,2.14q0,4.25-5.41,9Q66,42.93,63,42.93a2.89,2.89,0,0,1-2.22-1,3.47,3.47,0,0,1-.87-2.42,12.53,12.53,0,0,1,2.23-6.71,21.3,21.3,0,0,1,5.9-6,20.26,20.26,0,0,1,4.39-2.27,12.06,12.06,0,0,1,4-.89c.68,0,1,.31,1,.91A3.58,3.58,0,0,1,77.17,25.7Z" transform="translate(-0.93 -8.2)" fill="#1d1007"/><path d="M101.05,39.48l.38.61A21.72,21.72,0,0,1,95.52,43q.38-5.11,4.81-14.2l.68-1.46a1.34,1.34,0,0,0,.18-.58c0-.38-.16-.56-.49-.56q-1,0-4,3a25.5,25.5,0,0,0-4.07,5.5,38.91,38.91,0,0,0-3.11,7A16.8,16.8,0,0,0,86.24,43l.26-.66,1.4-3.44c1-2.55,2-5.06,2.82-7.55A22.86,22.86,0,0,0,92,26.83c0-.45-.21-.68-.63-.68s-1.41.63-2.65,1.89a27.55,27.55,0,0,0-3.44,4.32,52.55,52.55,0,0,0-4.81,9.44l-.35.12-1.24.45c-.5.17-1,.36-1.55.58q.57-1.19,2.2-5.15l1.83-4.41q2.07-5,2.13-6.26c0-.56-.19-.84-.68-.84a3.86,3.86,0,0,0-1.4.42L81.11,26a34.05,34.05,0,0,0,5.25-2.79l.51-.33a6.79,6.79,0,0,1,.07.92q0,2-2.43,7.92,6.51-8.33,10.1-8.32c.7,0,1,.37,1,1.12q0,1.69-2.37,7.5a35.4,35.4,0,0,1,5.85-6.09c2.1-1.7,3.72-2.55,4.84-2.55a.87.87,0,0,1,1,1,20.45,20.45,0,0,1-1.78,4.48Q98.9,38,98.9,39.48c0,.43.2.64.61.64A3.84,3.84,0,0,0,101.05,39.48Z" transform="translate(-0.93 -8.2)" fill="#1d1007"/><path d="M121.49,39.41l.42.61a18.4,18.4,0,0,1-6.73,2.91q.12-2.37,2.79-8.16a36.3,36.3,0,0,1-6.22,5.91Q108.56,43,106.68,43c-1.1,0-1.64-.69-1.64-2.08q0-3.54,3.16-7.65a25.47,25.47,0,0,1,7.94-6.77,21.89,21.89,0,0,1,10.74-3c.5,0,.75.19.75.56a5,5,0,0,1-.7,1.78,18.69,18.69,0,0,0-3.1-.28,16.19,16.19,0,0,0-12.3,5.56q-3.8,4.08-3.8,8.08c0,1.25.46,1.88,1.38,1.88s1.91-.68,3.38-2a24.49,24.49,0,0,0,3.94-4.7,23.1,23.1,0,0,0,3.25-7.69,2.4,2.4,0,0,1,1,2.25c0,1.52-.76,3.26-2.3,5.23a11.89,11.89,0,0,0,2.79-.66l-.18.4q-2.23,5-2.23,5.84,0,.68.63.63A6.12,6.12,0,0,0,121.49,39.41Z" transform="translate(-0.93 -8.2)" fill="#1d1007"/></g></g></svg>