<svg id="Bag" xmlns="http://www.w3.org/2000/svg" width="26" height="26" viewBox="0 0 26 26">
  <path id="Path_152" data-name="Path 152" d="M16.25,11.375A1.535,1.535,0,0,0,17.875,13,1.535,1.535,0,0,0,19.5,11.375,1.535,1.535,0,0,0,17.875,9.75,1.535,1.535,0,0,0,16.25,11.375Zm-9.75,0A1.535,1.535,0,0,0,8.125,13,1.535,1.535,0,0,0,9.75,11.375,1.535,1.535,0,0,0,8.125,9.75,1.535,1.535,0,0,0,6.5,11.375ZM24.375,7.963,26,24.212a1.845,1.845,0,0,1-.488,1.3A1.265,1.265,0,0,1,24.375,26H1.625a1.265,1.265,0,0,1-1.137-.488A1.845,1.845,0,0,1,0,24.212L1.625,7.962A1.728,1.728,0,0,1,3.25,6.5H6.5a6.5,6.5,0,0,1,13,0h3.25A1.728,1.728,0,0,1,24.375,7.963ZM16.25,6.5H9.75a3.25,3.25,0,0,1,6.5,0Z" fill="#1d1007" fill-rule="evenodd"/>
</svg>
